<svg xmlns="http://www.w3.org/2000/svg" xmlns:xlink="http://www.w3.org/1999/xlink" style="isolation:isolate" width="892" height="892" viewBox="6288.5 66 892 892"><defs><clipPath id="_clipPath_qNlxdyk839vh72clMzHggwAUjmBIdvGK"><rect width="892" height="892" x="6288.5" y="66"/></clipPath></defs><g clip-path="url(#_clipPath_qNlxdyk839vh72clMzHggwAUjmBIdvGK)"><rect width="892" height="892" x="6288.5" y="66" style="fill:#000" fill-opacity="0"/><g><circle cx="6734.5" cy="512" r="446" fill="#FAFAFA" vector-effect="non-scaling-stroke"/><path fill="#171717" d="M 6473.753 832.131 C 6488.59 857.15 6570.598 932.189 6821.086 744.464 C 6968.753 633.798 7045.311 436.562 6992.753 313.131 C 6948.753 209.798 6816.767 137.879 6685.003 159.798 C 6552.753 181.798 6421.753 372.798 6528.086 478.798 C 6577.759 528.315 6595.337 436.54 6578.253 410.298 C 6529.753 335.798 6580.253 265.798 6611.753 229.298 C 6654.416 179.862 6733.253 164.298 6798.086 209.798 C 6837.554 237.496 6856.4 276.087 6873.086 320.464 C 6901.669 396.478 6887.972 469.06 6863.086 545.131 C 6833.753 634.798 6763.753 706.798 6692.503 762.798 C 6657.789 790.081 6529.018 875.994 6484.42 786.798 C 6477.086 772.131 6439.753 774.798 6473.753 832.131 Z"/><path fill="#0D47A1" d="M 6676.003 465.048 C 6700.993 430.419 6707.503 375.423 6668.878 333.423 C 6647.457 310.13 6560.753 362.298 6587.753 395.464 C 6609.976 422.763 6595.727 459.079 6594.253 474.048 C 6589.378 523.548 6649.753 501.423 6676.003 465.048 Z"/><circle cx="6960.84" cy="722.694" r="48.485" fill="#F50057" vector-effect="non-scaling-stroke"/><circle cx="6856.238" cy="819.663" r="48.485" fill="#0D47A1" vector-effect="non-scaling-stroke"/></g></g></svg>